<?xml version="1.0" encoding="UTF-8"?>
<svg xmlns="http://www.w3.org/2000/svg" width="300" height="100" viewBox="0 0 300 100">
  <g fill="#FF5C35">
    <path d="M30,30 c0,-5 4,-10 10,-10 h20 c5,0 10,4 10,10 v40 c0,5 -4,10 -10,10 h-20 c-5,0 -10,-4 -10,-10 z M45,35 v30 h10 v-30 z"/>
    <path d="M80,20 h15 v60 h-15 z"/>
    <path d="M105,35 h15 v45 h-15 z M105,20 h15 v10 h-15 z"/>
    <path d="M130,20 h15 c5,0 10,4 10,10 v40 c0,5 -4,10 -10,10 h-15 z M145,35 v30 h-5 v-30 z"/>
    <path d="M165,20 h15 v60 h-15 z"/>
    <path d="M190,20 h15 v9 h1 c3,-7 10,-11 18,-11 14,0 22,10 22,24 v38 h-15 v-34 c0,-9 -4,-14 -12,-14 -8,0 -14,6 -14,16 v32 h-15 z"/>
    <path d="M255,20 h15 v60 h-15 z"/>
  </g>
</svg>