<?xml version="1.0" encoding="UTF-8"?>
<svg xmlns="http://www.w3.org/2000/svg" width="300" height="100" viewBox="0 0 300 100">
  <g fill="#2a8e43">
    <path d="M20,30 c0,-6 5,-11 11,-11 h20 c6,0 11,5 11,11 v40 c0,6 -5,11 -11,11 h-20 c-6,0 -11,-5 -11,-11 z M35,35 v30 h15 v-30 z"/>
    <path d="M70,20 h15 v60 h-15 z"/>
    <path d="M95,50 c0,-18 14,-32 32,-32 18,0 32,14 32,32 c0,18 -14,32 -32,32 c-18,0 -32,-14 -32,-32 z m15,0 c0,9 7,17 17,17 c9,0 17,-8 17,-17 c0,-9 -8,-17 -17,-17 c-10,0 -17,8 -17,17 z"/>
    <path d="M165,50 a1,1 0 0,0 50,0 a1,1 0 0,0 -50,0 z M180,50 a1,1 0 0,0 20,0 a1,1 0 0,0 -20,0 z"/>
    <path d="M225,20 h15 v9 h1 c3,-7 10,-11 18,-11 14,0 22,10 22,24 v38 h-15 v-34 c0,-9 -4,-14 -12,-14 -8,0 -14,6 -14,16 v32 h-15 z"/>
  </g>
</svg>