<?xml version="1.0" encoding="UTF-8"?>
<svg xmlns="http://www.w3.org/2000/svg" width="300" height="100" viewBox="0 0 300 100">
  <g fill="#6c4675">
    <path d="M20,30 c0,-6 5,-11 11,-11 h20 c6,0 11,5 11,11 v40 c0,6 -5,11 -11,11 h-20 c-6,0 -11,-5 -11,-11 z M35,35 v30 h15 v-30 z"/>
    <path d="M70,20 h15 v9 h1 c3,-7 10,-11 18,-11 14,0 22,10 22,24 v38 h-15 v-34 c0,-9 -4,-14 -12,-14 -8,0 -14,6 -14,16 v32 h-15 z"/>
    <path d="M135,20 h15 v25 h25 v-25 h15 v60 h-15 v-20 h-25 v20 h-15 z"/>
    <path d="M200,20 h15 v9 h1 c3,-7 10,-11 18,-11 14,0 22,10 22,24 v38 h-15 v-34 c0,-9 -4,-14 -12,-14 -8,0 -14,6 -14,16 v32 h-15 z"/>
  </g>
</svg>