<?xml version="1.0" encoding="UTF-8"?>
<svg xmlns="http://www.w3.org/2000/svg" width="300" height="100" viewBox="0 0 300 100">
  <g fill="#1E3764">
    <path d="M30,20 h40 v15 h-25 v15 h20 v15 h-20 v15 h-15 z"/>
    <path d="M80,20 h15 v60 h-15 z"/>
    <path d="M105,20 h15 v9 h1 c3,-7 10,-11 18,-11 14,0 22,10 22,24 v38 h-15 v-34 c0,-9 -4,-14 -12,-14 -8,0 -14,6 -14,16 v32 h-15 z"/>
    <path d="M210,20 h15 v60 h-15 v-9 h-1 c-3,7 -10,11 -18,11 -14,0 -22,-10 -22,-24 v-38 h15 v34 c0,9 4,14 12,14 8,0 14,-6 14,-16 z"/>
  </g>
</svg>