<?xml version="1.0" encoding="UTF-8"?>
<svg xmlns="http://www.w3.org/2000/svg" width="300" height="100" viewBox="0 0 300 100">
  <g fill="#163c8a">
    <path d="M30,20 h15 v9 h1 c3,-7 10,-11 18,-11 14,0 22,5 22,16 c0,0 0,0 0,0 c3,-7 10,-16 22,-16 14,0 22,10 22,24 v38 h-15 v-34 c0,-9 -4,-14 -12,-14 -8,0 -14,6 -14,16 v32 h-15 v-34 c0,-9 -4,-14 -12,-14 -8,0 -14,6 -14,16 v32 h-15 z"/>
    <path d="M138,50 c0,-18 14,-32 32,-32 18,0 32,14 32,32 c0,18 -14,32 -32,32 c-18,0 -32,-14 -32,-32 z M153,50 c0,9 7,17 17,17 c9,0 17,-8 17,-17 c0,-9 -8,-17 -17,-17 c-10,0 -17,8 -17,17 z"/>
    <path d="M210,50 c0,-18 14,-32 32,-32 18,0 32,14 32,32 c0,18 -14,32 -32,32 c-18,0 -32,-14 -32,-32 z M225,50 c0,9 7,17 17,17 c9,0 17,-8 17,-17 c0,-9 -8,-17 -17,-17 c-10,0 -17,8 -17,17 z"/>
  </g>
</svg>