<?xml version="1.0" encoding="UTF-8"?>
<svg xmlns="http://www.w3.org/2000/svg" width="300" height="100" viewBox="0 0 300 100">
  <g fill="#b8860b">
    <path d="M30,20 h15 v9 h1 c3,-7 10,-11 18,-11 14,0 22,10 22,24 v38 h-15 v-34 c0,-9 -4,-14 -12,-14 -8,0 -14,6 -14,16 v32 h-15 z"/>
    <path d="M95,20 h15 v60 h-15 z"/>
    <path d="M120,20 h15 v9 h1 c3,-7 10,-11 18,-11 14,0 22,10 22,24 v38 h-15 v-34 c0,-9 -4,-14 -12,-14 -8,0 -14,6 -14,16 v32 h-15 z"/>
    <path d="M205,20 h15 c5,0 10,4 10,10 v40 c0,5 -4,10 -10,10 h-15 z M205,35 v30 h5 v-30 z"/>
    <circle cx="250" cy="50" r="20" stroke="#b8860b" stroke-width="5" fill="none"/>
  </g>
</svg>