<?xml version="1.0" encoding="UTF-8"?>
<svg xmlns="http://www.w3.org/2000/svg" width="300" height="100" viewBox="0 0 300 100">
  <g fill="#d4aa37">
    <path d="M40,35 c0,-8 7,-15 15,-15 h10 c8,0 15,7 15,15 v5 c0,8 -7,15 -15,15 h-10 c-8,0 -15,7 -15,15 v5 c0,8 7,15 15,15 h10 c8,0 15,-7 15,-15 h-15 c0,0 0,5 -5,5 s-5,-5 -5,-5 v-5 c0,0 0,-5 5,-5 h10 c8,0 15,-7 15,-15 v-5 c0,-8 -7,-15 -15,-15 h-10 c-8,0 -15,7 -15,15 h15 c0,0 0,-5 5,-5 s5,5 5,5 v5 c0,0 0,5 -5,5 h-10 c-8,0 -15,7 -15,15 v5 c0,8 7,15 15,15 h10 c8,0 15,-7 15,-15 v-5 c0,-8 -7,-15 -15,-15 h-10 c-8,0 -15,7 -15,15 v-25 z"/>
    <path d="M100,20 h15 v60 h-15 z"/>
    <path d="M125,20 h15 v45 h25 v15 h-40 z"/>
    <path d="M175,20 h15 v60 h-15 z"/>
    <path d="M200,35 c0,-8 7,-15 15,-15 h10 c8,0 15,7 15,15 v5 c0,8 -7,15 -15,15 h-10 c-8,0 -15,7 -15,15 v5 c0,8 7,15 15,15 h10 c8,0 15,-7 15,-15 h-15 c0,0 0,5 -5,5 s-5,-5 -5,-5 v-5 c0,0 0,-5 5,-5 h10 c8,0 15,-7 15,-15 v-5 c0,-8 -7,-15 -15,-15 h-10 c-8,0 -15,7 -15,15 h15 c0,0 0,-5 5,-5 s5,5 5,5 v5 c0,0 0,5 -5,5 h-10 c-8,0 -15,7 -15,15 v5 c0,8 7,15 15,15 h10 c8,0 15,-7 15,-15 v-5 c0,-8 -7,-15 -15,-15 h-10 c-8,0 -15,7 -15,15 v-25 z"/>
  </g>
</svg>