<?xml version="1.0" encoding="UTF-8"?>
<svg xmlns="http://www.w3.org/2000/svg" width="300" height="100" viewBox="0 0 300 100">
  <defs>
    <linearGradient id="tajiriGrad" x1="0%" y1="0%" x2="100%" y2="100%">
      <stop offset="0%" style="stop-color:#16a085;stop-opacity:1" />
      <stop offset="100%" style="stop-color:#2ecc71;stop-opacity:1" />
    </linearGradient>
    <linearGradient id="circuitGrad" x1="0%" y1="0%" x2="100%" y2="100%">
      <stop offset="0%" style="stop-color:#ffffff;stop-opacity:0.9" />
      <stop offset="100%" style="stop-color:#ffffff;stop-opacity:0.6" />
    </linearGradient>
  </defs>
  
  <!-- Background -->
  <path d="M50,30 L250,30 C260,30 270,40 270,50 C270,60 260,70 250,70 L50,70 C40,70 30,60 30,50 C30,40 40,30 50,30 Z" 
        fill="url(#tajiriGrad)" />
  
  <!-- Circuit Pattern -->
  <path d="M60,50 L90,50 M100,50 L130,50 M130,50 L130,40 M130,50 L130,60 M140,50 L170,50" 
        stroke="url(#circuitGrad)" stroke-width="1.5" fill="none" />
  <circle cx="95" cy="50" r="5" fill="url(#circuitGrad)" />
  <circle cx="135" cy="40" r="3" fill="url(#circuitGrad)" />
  <circle cx="135" cy="60" r="3" fill="url(#circuitGrad)" />
  <circle cx="175" cy="50" r="5" fill="url(#circuitGrad)" />
  
  <!-- Brain Icon -->
  <path d="M70,50 C70,42 76,36 84,36 C88,36 91,38 93,40 C95,38 98,36 102,36 C110,36 116,42 116,50 C116,58 110,64 102,64 C100,64 98,63 96,62 C94,63 92,64 90,64 C88,64 86,63 84,62 C82,63 80,64 78,64 C74,64 70,60 70,56 C70,54 71,52 73,50 C71,48 70,46 70,50 Z" 
        fill="#ffffff" opacity="0.8" />
  
  <!-- Text -->
  <text x="180" y="52" font-family="Arial, sans-serif" font-size="22" font-weight="bold" text-anchor="middle" fill="white">TAJIRI AI</text>
  
  <!-- Small data nodes -->
  <circle cx="220" cy="40" r="2" fill="white" />
  <circle cx="230" cy="45" r="1.5" fill="white" />
  <circle cx="240" cy="50" r="2" fill="white" />
  <circle cx="230" cy="55" r="1.5" fill="white" />
  <circle cx="220" cy="60" r="2" fill="white" />
</svg>